<svg width="1280" height="440" viewBox="0 0 1280 440" fill="none" xmlns="http://www.w3.org/2000/svg">
<path d="M1280 0H0V440H1280V0Z" fill="#414042"/>
<mask id="mask0_167_5821" style="mask-type:luminance" maskUnits="userSpaceOnUse" x="0" y="0" width="1280" height="440">
<path d="M1280 0H0V439.733H1280V0Z" fill="white"/>
</mask>
<g mask="url(#mask0_167_5821)">
<path d="M1290.78 412.289C1287.43 410.346 1283.3 410.346 1279.95 412.289L1241 434.73L1329.64 434.779L1290.78 412.289Z" fill="#99D5CA"/>
<path d="M1277.28 407.628C1280.63 405.685 1282.67 402.139 1282.67 398.253L1282.72 353.129L1238.18 430.166L1277.28 407.628Z" fill="#99D5CA"/>
<path d="M1170.56 353.322L1170.52 398.252C1170.52 402.09 1172.56 405.684 1175.91 407.627L1214.81 430.116L1170.56 353.322Z" fill="#99D5CA"/>
<path d="M1173.24 412.289C1169.89 410.346 1165.76 410.346 1162.41 412.289L1123.45 434.73L1212.1 434.779L1173.24 412.289Z" fill="#99D5CA"/>
<path d="M1159.73 407.628C1163.08 405.685 1165.12 402.139 1165.12 398.253L1165.17 353.129L1120.63 430.166L1159.73 407.628Z" fill="#99D5CA"/>
<path d="M1052.97 353.324L1052.92 398.254C1052.92 402.092 1054.96 405.686 1058.31 407.629L1097.22 430.118L1052.97 353.324Z" fill="#99D5CA"/>
<path d="M1055.64 412.291C1052.29 410.348 1048.16 410.348 1044.81 412.291L1005.85 434.732L1094.5 434.781L1055.64 412.291Z" fill="#99D5CA"/>
<path d="M1042.14 407.628C1045.49 405.685 1047.53 402.139 1047.53 398.253L1047.58 353.129L1003.04 430.166L1042.14 407.628Z" fill="#99D5CA"/>
<path d="M935.422 353.324L935.373 398.254C935.373 402.092 937.413 405.686 940.765 407.629L979.672 430.118L935.422 353.324Z" fill="#99D5CA"/>
<path d="M938.092 412.289C934.741 410.346 930.612 410.346 927.261 412.289L888.305 434.73L976.951 434.779L938.092 412.289Z" fill="#99D5CA"/>
<path d="M924.59 407.628C927.941 405.685 929.982 402.139 929.982 398.253L930.03 353.129L885.489 430.166L924.59 407.628Z" fill="#99D5CA"/>
<path d="M817.826 353.322L817.778 398.252C817.778 402.09 819.818 405.684 823.169 407.627L862.076 430.116L817.826 353.322Z" fill="#99D5CA"/>
<path d="M820.499 412.289C817.147 410.346 813.018 410.346 809.667 412.289L770.711 434.73L859.357 434.779L820.499 412.289Z" fill="#99D5CA"/>
<path d="M807.043 407.628C810.395 405.685 812.435 402.139 812.435 398.253L812.483 353.129L767.942 430.166L807.043 407.628Z" fill="#99D5CA"/>
<path d="M700.279 353.322L700.231 398.252C700.231 402.09 702.271 405.684 705.622 407.627L744.529 430.116L700.279 353.322Z" fill="#99D5CA"/>
<path d="M702.952 412.289C699.6 410.346 695.471 410.346 692.12 412.289L653.164 434.73L741.81 434.779L702.952 412.289Z" fill="#99D5CA"/>
<path d="M689.447 407.628C692.799 405.685 694.839 402.139 694.839 398.253L694.888 353.129L650.346 430.166L689.447 407.628Z" fill="#99D5CA"/>
<path d="M582.732 353.322L582.684 398.252C582.684 402.09 584.724 405.684 588.075 407.627L626.983 430.116L582.732 353.322Z" fill="#99D5CA"/>
<path d="M585.405 412.289C582.053 410.346 577.925 410.346 574.573 412.289L535.617 434.73L624.263 434.779L585.405 412.289Z" fill="#99D5CA"/>
<path d="M571.9 407.628C575.252 405.685 577.292 402.139 577.292 398.253L577.341 353.129L532.799 430.166L571.9 407.628Z" fill="#99D5CA"/>
<path d="M465.137 353.322L465.088 398.252C465.088 402.09 467.128 405.684 470.48 407.627L509.387 430.116L465.137 353.322Z" fill="#99D5CA"/>
<path d="M467.809 412.289C464.458 410.346 460.329 410.346 456.977 412.289L418.022 434.73L506.668 434.779L467.809 412.289Z" fill="#99D5CA"/>
<path d="M454.305 407.628C457.657 405.685 459.697 402.139 459.697 398.253L459.745 353.129L415.252 430.166L454.305 407.628Z" fill="#99D5CA"/>
<path d="M347.59 353.322L347.541 398.252C347.541 402.09 349.581 405.684 352.933 407.627L391.84 430.116L347.59 353.322Z" fill="#99D5CA"/>
<path d="M350.26 412.289C346.909 410.346 342.78 410.346 339.429 412.289L300.473 434.73L389.119 434.779L350.26 412.289Z" fill="#99D5CA"/>
<path d="M336.758 407.628C340.109 405.685 342.15 402.139 342.15 398.253L342.198 353.129L297.656 430.166L336.758 407.628Z" fill="#99D5CA"/>
<path d="M229.994 353.322L229.946 398.252C229.946 402.09 231.986 405.684 235.337 407.627L274.244 430.116L229.994 353.322Z" fill="#99D5CA"/>
<path d="M232.667 412.289C229.315 410.346 225.186 410.346 221.835 412.289L182.879 434.73L271.525 434.779L232.667 412.289Z" fill="#99D5CA"/>
<path d="M219.211 407.628C222.563 405.685 224.603 402.139 224.603 398.253L224.651 353.129L180.11 430.166L219.211 407.628Z" fill="#99D5CA"/>
<path d="M112.447 353.322L112.399 398.252C112.399 402.09 114.439 405.684 117.79 407.627L156.697 430.116L112.447 353.322Z" fill="#99D5CA"/>
<path d="M115.12 412.289C111.768 410.346 107.64 410.346 104.288 412.289L65.3323 434.73L153.978 434.779L115.12 412.289Z" fill="#99D5CA"/>
<path d="M101.615 407.628C104.967 405.685 107.007 402.139 107.007 398.253L107.055 353.129L62.5139 430.166L101.615 407.628Z" fill="#99D5CA"/>
<path d="M-5.09972 353.322L-5.14819 398.252C-5.14819 402.09 -3.10819 405.684 0.243356 407.627L39.1505 430.116L-5.09972 353.322Z" fill="#99D5CA"/>
<path d="M-2.42711 412.289C-5.77866 410.346 -9.90743 410.346 -13.259 412.289L-52.2146 434.73L36.4314 434.779L-2.42711 412.289Z" fill="#99D5CA"/>
<path d="M1224.04 434.243L1224.09 389.313C1224.09 385.476 1222.05 381.882 1218.7 379.939L1179.79 357.449L1224.04 434.243Z" fill="#99D5CA"/>
<path d="M1221.37 375.276C1224.72 377.219 1228.85 377.219 1232.2 375.276L1271.16 352.836L1182.51 352.787L1221.37 375.276Z" fill="#99D5CA"/>
<path d="M1234.83 379.94C1231.48 381.883 1229.44 385.429 1229.44 389.315L1229.39 434.439L1273.93 357.402L1234.83 379.94Z" fill="#99D5CA"/>
<path d="M1106.4 434.243L1106.45 389.313C1106.45 385.476 1104.41 381.882 1101.06 379.939L1062.15 357.449L1106.4 434.243Z" fill="#99D5CA"/>
<path d="M1103.73 375.276C1107.08 377.219 1111.21 377.219 1114.56 375.276L1153.52 352.836L1064.87 352.787L1103.73 375.276Z" fill="#99D5CA"/>
<path d="M1117.23 379.94C1113.88 381.883 1111.84 385.429 1111.84 389.315L1111.79 434.439L1156.33 357.402L1117.23 379.94Z" fill="#99D5CA"/>
<path d="M988.901 434.243L988.949 389.313C988.949 385.476 986.909 381.882 983.558 379.939L944.651 357.449L988.901 434.243Z" fill="#99D5CA"/>
<path d="M986.23 375.276C989.581 377.219 993.71 377.219 997.062 375.276L1036.02 352.836L947.371 352.787L986.23 375.276Z" fill="#99D5CA"/>
<path d="M999.733 379.94C996.382 381.883 994.342 385.429 994.342 389.315L994.293 434.439L1038.83 357.402L999.733 379.94Z" fill="#99D5CA"/>
<path d="M871.209 434.243L871.258 389.313C871.258 385.476 869.218 381.882 865.866 379.939L826.959 357.449L871.209 434.243Z" fill="#99D5CA"/>
<path d="M868.538 375.276C871.89 377.219 876.018 377.219 879.37 375.276L918.326 352.836L829.68 352.787L868.538 375.276Z" fill="#99D5CA"/>
<path d="M882.042 379.938C878.69 381.881 876.65 385.427 876.65 389.313L876.602 434.437L921.143 357.4L882.042 379.938Z" fill="#99D5CA"/>
<path d="M753.614 434.243L753.662 389.313C753.662 385.476 751.622 381.882 748.271 379.939L709.364 357.449L753.614 434.243Z" fill="#99D5CA"/>
<path d="M750.943 375.276C754.294 377.219 758.423 377.219 761.775 375.276L800.73 352.836L712.084 352.787L750.943 375.276Z" fill="#99D5CA"/>
<path d="M764.444 379.94C761.093 381.883 759.053 385.429 759.053 389.315L759.004 434.439L803.546 357.402L764.444 379.94Z" fill="#99D5CA"/>
<path d="M636.163 434.243L636.211 389.313C636.211 385.476 634.171 381.882 630.82 379.939L591.912 357.449L636.163 434.243Z" fill="#99D5CA"/>
<path d="M633.492 375.276C636.843 377.219 640.972 377.219 644.323 375.276L683.279 352.836L594.633 352.787L633.492 375.276Z" fill="#99D5CA"/>
<path d="M646.993 379.938C643.642 381.881 641.602 385.427 641.602 389.313L641.553 434.437L686.095 357.4L646.993 379.938Z" fill="#99D5CA"/>
<path d="M518.469 434.243L518.518 389.313C518.518 385.476 516.478 381.882 513.126 379.939L474.219 357.449L518.469 434.243Z" fill="#99D5CA"/>
<path d="M515.798 375.276C519.15 377.219 523.278 377.219 526.63 375.276L565.586 352.836L476.94 352.787L515.798 375.276Z" fill="#99D5CA"/>
<path d="M529.3 379.94C525.948 381.883 523.908 385.429 523.908 389.315L523.86 434.439L568.401 357.402L529.3 379.94Z" fill="#99D5CA"/>
<path d="M400.778 434.243L400.826 389.313C400.826 385.476 398.786 381.882 395.435 379.939L356.528 357.449L400.778 434.243Z" fill="#99D5CA"/>
<path d="M398.107 375.276C401.458 377.219 405.587 377.219 408.939 375.276L447.894 352.836L359.248 352.787L398.107 375.276Z" fill="#99D5CA"/>
<path d="M411.608 379.94C408.257 381.883 406.217 385.429 406.217 389.315L406.168 434.439L450.71 357.402L411.608 379.94Z" fill="#99D5CA"/>
<path d="M283.424 434.243L283.473 389.313C283.473 385.476 281.433 381.882 278.081 379.939L239.174 357.449L283.424 434.243Z" fill="#99D5CA"/>
<path d="M280.753 375.276C284.105 377.219 288.234 377.219 291.585 375.276L330.541 352.836L241.895 352.787L280.753 375.276Z" fill="#99D5CA"/>
<path d="M294.255 379.94C290.903 381.883 288.863 385.429 288.863 389.315L288.815 434.439L333.356 357.402L294.255 379.94Z" fill="#99D5CA"/>
<path d="M165.731 434.243L165.78 389.313C165.78 385.476 163.739 381.882 160.388 379.939L121.481 357.449L165.731 434.243Z" fill="#99D5CA"/>
<path d="M163.058 375.276C166.41 377.219 170.538 377.219 173.89 375.276L212.845 352.836L124.199 352.787L163.058 375.276Z" fill="#99D5CA"/>
<path d="M176.563 379.938C173.212 381.881 171.172 385.427 171.172 389.313L171.123 434.437L215.665 357.4L176.563 379.938Z" fill="#99D5CA"/>
<path d="M48.0394 434.243L48.088 389.313C48.088 385.476 46.0479 381.882 42.6963 379.939L3.78931 357.449L48.0394 434.243Z" fill="#99D5CA"/>
<path d="M45.3685 375.276C48.7201 377.219 52.8487 377.219 56.2003 375.276L95.156 352.836L6.51001 352.787L45.3685 375.276Z" fill="#99D5CA"/>
<path d="M58.8721 379.938C55.5205 381.881 53.4804 385.427 53.4804 389.313L53.4319 434.437L97.9734 357.4L58.8721 379.938Z" fill="#99D5CA"/>
<path d="M-13.454 288.331C-10.1024 290.274 -5.97365 290.274 -2.6221 288.331L36.3335 265.891L-52.3125 265.842L-13.454 288.331Z" fill="#99D5CA"/>
<path d="M0.0495447 292.995C-3.302 294.938 -5.342 298.484 -5.342 302.37L-5.39062 347.494L39.151 270.457L0.0495447 292.995Z" fill="#99D5CA"/>
<path d="M106.813 347.3L106.861 302.37C106.861 298.533 104.821 294.938 101.47 292.995L62.5625 270.506L106.813 347.3Z" fill="#99D5CA"/>
<path d="M104.14 288.331C107.491 290.274 111.62 290.274 114.971 288.331L153.927 265.89L65.2812 265.842L104.14 288.331Z" fill="#99D5CA"/>
<path d="M117.645 292.995C114.294 294.938 112.254 298.484 112.254 302.37L112.205 347.494L156.747 270.457L117.645 292.995Z" fill="#99D5CA"/>
<path d="M224.36 347.3L224.408 302.37C224.408 298.533 222.368 294.938 219.017 292.995L180.109 270.506L224.36 347.3Z" fill="#99D5CA"/>
<path d="M221.687 288.331C225.038 290.274 229.167 290.274 232.519 288.331L271.474 265.89L182.828 265.842L221.687 288.331Z" fill="#99D5CA"/>
<path d="M235.192 292.995C231.841 294.938 229.801 298.484 229.801 302.37L229.752 347.494L274.294 270.457L235.192 292.995Z" fill="#99D5CA"/>
<path d="M341.955 347.3L342.004 302.37C342.004 298.533 339.964 294.938 336.612 292.995L297.705 270.506L341.955 347.3Z" fill="#99D5CA"/>
<path d="M339.284 288.331C342.636 290.274 346.765 290.274 350.116 288.331L389.072 265.89L300.426 265.842L339.284 288.331Z" fill="#99D5CA"/>
<path d="M352.739 292.995C349.387 294.938 347.347 298.484 347.347 302.37L347.299 347.494L391.84 270.457L352.739 292.995Z" fill="#99D5CA"/>
<path d="M459.502 347.3L459.551 302.37C459.551 298.533 457.511 294.938 454.159 292.995L415.252 270.506L459.502 347.3Z" fill="#99D5CA"/>
<path d="M456.831 288.331C460.183 290.274 464.312 290.274 467.663 288.331L506.619 265.89L417.973 265.842L456.831 288.331Z" fill="#99D5CA"/>
<path d="M470.335 292.995C466.983 294.938 464.943 298.484 464.943 302.37L464.895 347.494L509.436 270.457L470.335 292.995Z" fill="#99D5CA"/>
<path d="M577.049 347.302L577.098 302.372C577.098 298.535 575.057 294.94 571.706 292.997L532.799 270.508L577.049 347.302Z" fill="#99D5CA"/>
<path d="M574.378 288.333C577.73 290.276 581.858 290.276 585.21 288.333L624.166 265.892L535.52 265.844L574.378 288.333Z" fill="#99D5CA"/>
<path d="M587.882 292.995C584.53 294.938 582.49 298.484 582.49 302.37L582.441 347.494L626.983 270.457L587.882 292.995Z" fill="#99D5CA"/>
<path d="M694.645 347.3L694.693 302.37C694.693 298.533 692.653 294.938 689.302 292.995L650.395 270.506L694.645 347.3Z" fill="#99D5CA"/>
<path d="M691.974 288.331C695.325 290.274 699.454 290.274 702.806 288.331L741.761 265.891L653.115 265.842L691.974 288.331Z" fill="#99D5CA"/>
<path d="M705.475 292.995C702.124 294.938 700.084 298.484 700.084 302.37L700.035 347.494L744.577 270.457L705.475 292.995Z" fill="#99D5CA"/>
<path d="M812.192 347.3L812.24 302.37C812.24 298.533 810.2 294.938 806.849 292.995L767.941 270.506L812.192 347.3Z" fill="#99D5CA"/>
<path d="M809.52 288.331C812.872 290.274 817.001 290.274 820.352 288.331L859.308 265.891L770.662 265.842L809.52 288.331Z" fill="#99D5CA"/>
<path d="M823.022 292.995C819.671 294.938 817.631 298.484 817.631 302.37L817.582 347.494L862.124 270.457L823.022 292.995Z" fill="#99D5CA"/>
<path d="M929.787 347.3L929.836 302.37C929.836 298.533 927.796 294.938 924.444 292.995L885.537 270.506L929.787 347.3Z" fill="#99D5CA"/>
<path d="M927.116 288.331C930.468 290.274 934.597 290.274 937.948 288.331L976.904 265.89L888.258 265.842L927.116 288.331Z" fill="#99D5CA"/>
<path d="M940.569 292.995C937.218 294.938 935.178 298.484 935.178 302.37L935.129 347.494L979.671 270.457L940.569 292.995Z" fill="#99D5CA"/>
<path d="M1047.34 347.3L1047.38 302.37C1047.38 298.533 1045.34 294.938 1041.99 292.995L1003.09 270.506L1047.34 347.3Z" fill="#99D5CA"/>
<path d="M1044.67 288.331C1048.02 290.274 1052.15 290.274 1055.5 288.331L1094.45 265.89L1005.81 265.842L1044.67 288.331Z" fill="#99D5CA"/>
<path d="M1058.17 292.995C1054.82 294.938 1052.78 298.484 1052.78 302.37L1052.73 347.494L1097.27 270.457L1058.17 292.995Z" fill="#99D5CA"/>
<path d="M1164.88 347.298L1164.93 302.368C1164.93 298.531 1162.89 294.936 1159.54 292.993L1120.63 270.504L1164.88 347.298Z" fill="#99D5CA"/>
<path d="M1162.21 288.331C1165.56 290.274 1169.69 290.274 1173.04 288.331L1212 265.891L1123.35 265.842L1162.21 288.331Z" fill="#99D5CA"/>
<path d="M1175.71 292.993C1172.36 294.936 1170.32 298.482 1170.32 302.368L1170.27 347.492L1214.81 270.455L1175.71 292.993Z" fill="#99D5CA"/>
<path d="M1282.48 347.3L1282.53 302.37C1282.53 298.533 1280.49 294.938 1277.13 292.995L1238.23 270.506L1282.48 347.3Z" fill="#99D5CA"/>
<path d="M1279.81 288.331C1283.16 290.274 1287.29 290.274 1290.64 288.331L1329.59 265.89L1240.95 265.842L1279.81 288.331Z" fill="#99D5CA"/>
<path d="M53.3317 266.328L53.2832 311.258C53.2832 315.096 55.3232 318.69 58.6748 320.633L97.5819 343.122L53.3317 266.328Z" fill="#99D5CA"/>
<path d="M56.0043 325.295C52.6527 323.352 48.524 323.352 45.1724 325.295L6.2168 347.736L94.8628 347.784L56.0043 325.295Z" fill="#99D5CA"/>
<path d="M42.4999 320.632C45.8515 318.689 47.8915 315.143 47.8915 311.257L47.9401 266.133L3.39844 343.17L42.4999 320.632Z" fill="#99D5CA"/>
<path d="M170.928 266.328L170.879 311.258C170.879 315.096 172.919 318.69 176.27 320.633L215.178 343.122L170.928 266.328Z" fill="#99D5CA"/>
<path d="M173.6 325.293C170.248 323.35 166.12 323.35 162.768 325.293L123.812 347.734L212.459 347.783L173.6 325.293Z" fill="#99D5CA"/>
<path d="M160.097 320.632C163.449 318.689 165.489 315.143 165.489 311.257L165.538 266.133L120.996 343.17L160.097 320.632Z" fill="#99D5CA"/>
<path d="M288.428 266.328L288.379 311.258C288.379 315.096 290.419 318.69 293.77 320.633L332.678 343.122L288.428 266.328Z" fill="#99D5CA"/>
<path d="M291.149 325.295C287.797 323.352 283.668 323.352 280.317 325.295L241.361 347.736L330.007 347.784L291.149 325.295Z" fill="#99D5CA"/>
<path d="M277.644 320.632C280.996 318.689 283.036 315.143 283.036 311.257L283.085 266.133L238.543 343.17L277.644 320.632Z" fill="#99D5CA"/>
<path d="M406.119 266.328L406.07 311.258C406.07 315.096 408.11 318.69 411.462 320.633L450.369 343.122L406.119 266.328Z" fill="#99D5CA"/>
<path d="M408.838 325.293C405.487 323.35 401.358 323.35 398.007 325.293L359.051 347.734L447.697 347.783L408.838 325.293Z" fill="#99D5CA"/>
<path d="M395.336 320.632C398.687 318.689 400.727 315.143 400.727 311.257L400.776 266.133L356.234 343.17L395.336 320.632Z" fill="#99D5CA"/>
<path d="M523.765 266.328L523.717 311.258C523.717 315.096 525.757 318.69 529.108 320.633L568.016 343.122L523.765 266.328Z" fill="#99D5CA"/>
<path d="M526.436 325.293C523.084 323.35 518.956 323.35 515.604 325.293L476.648 347.734L565.294 347.783L526.436 325.293Z" fill="#99D5CA"/>
<path d="M512.933 320.632C516.285 318.689 518.325 315.143 518.325 311.257L518.374 266.133L473.832 343.17L512.933 320.632Z" fill="#99D5CA"/>
<path d="M641.166 266.328L641.117 311.258C641.117 315.096 643.157 318.69 646.509 320.633L685.416 343.122L641.166 266.328Z" fill="#99D5CA"/>
<path d="M643.838 325.297C640.487 323.354 636.358 323.354 633.006 325.297L594.051 347.738L682.697 347.786L643.838 325.297Z" fill="#99D5CA"/>
<path d="M630.383 320.634C633.734 318.691 635.774 315.145 635.774 311.259L635.823 266.135L591.281 343.172L630.383 320.634Z" fill="#99D5CA"/>
<path d="M758.859 266.328L758.811 311.258C758.811 315.096 760.851 318.69 764.202 320.633L803.109 343.122L758.859 266.328Z" fill="#99D5CA"/>
<path d="M761.532 325.297C758.18 323.354 754.051 323.354 750.7 325.297L711.744 347.738L800.39 347.786L761.532 325.297Z" fill="#99D5CA"/>
<path d="M748.076 320.634C751.427 318.691 753.468 315.145 753.468 311.259L753.516 266.135L708.975 343.172L748.076 320.634Z" fill="#99D5CA"/>
<path d="M876.551 266.328L876.502 311.258C876.502 315.096 878.542 318.69 881.894 320.633L920.801 343.122L876.551 266.328Z" fill="#99D5CA"/>
<path d="M879.223 325.293C875.871 323.35 871.743 323.35 868.391 325.293L829.436 347.734L918.082 347.783L879.223 325.293Z" fill="#99D5CA"/>
<path d="M865.767 320.632C869.119 318.689 871.159 315.143 871.159 311.257L871.208 266.133L826.666 343.17L865.767 320.632Z" fill="#99D5CA"/>
<path d="M993.904 266.328L993.855 311.258C993.855 315.096 995.896 318.69 999.247 320.633L1038.15 343.122L993.904 266.328Z" fill="#99D5CA"/>
<path d="M996.577 325.297C993.225 323.354 989.096 323.354 985.745 325.297L946.789 347.738L1035.44 347.786L996.577 325.297Z" fill="#99D5CA"/>
<path d="M983.072 320.634C986.424 318.691 988.464 315.145 988.464 311.259L988.512 266.135L943.971 343.172L983.072 320.634Z" fill="#99D5CA"/>
<path d="M1111.6 266.328L1111.55 311.258C1111.55 315.096 1113.59 318.69 1116.94 320.633L1155.85 343.122L1111.6 266.328Z" fill="#99D5CA"/>
<path d="M1114.27 325.297C1110.92 323.354 1106.79 323.354 1103.44 325.297L1064.48 347.738L1153.13 347.786L1114.27 325.297Z" fill="#99D5CA"/>
<path d="M1100.77 320.634C1104.12 318.691 1106.16 315.145 1106.16 311.259L1106.21 266.135L1061.66 343.172L1100.77 320.634Z" fill="#99D5CA"/>
<path d="M1229.29 266.328L1229.24 311.258C1229.24 315.096 1231.28 318.69 1234.63 320.633L1273.54 343.122L1229.29 266.328Z" fill="#99D5CA"/>
<path d="M1231.96 325.297C1228.61 323.354 1224.48 323.354 1221.13 325.297L1182.17 347.738L1270.82 347.786L1231.96 325.297Z" fill="#99D5CA"/>
<path d="M1218.46 320.634C1221.81 318.691 1223.85 315.145 1223.85 311.259L1223.9 266.135L1179.36 343.172L1218.46 320.634Z" fill="#99D5CA"/>
<path d="M1290.78 238.299C1287.43 236.356 1283.3 236.356 1279.95 238.299L1241 260.74L1329.64 260.788L1290.78 238.299Z" fill="#99D5CA"/>
<path d="M1277.28 233.636C1280.63 231.693 1282.67 228.147 1282.67 224.261L1282.72 179.137L1238.18 256.174L1277.28 233.636Z" fill="#99D5CA"/>
<path d="M1170.56 179.332L1170.52 224.262C1170.52 228.099 1172.56 231.694 1175.91 233.637L1214.81 256.126L1170.56 179.332Z" fill="#99D5CA"/>
<path d="M1173.24 238.299C1169.89 236.356 1165.76 236.356 1162.4 238.299L1123.45 260.74L1212.1 260.788L1173.24 238.299Z" fill="#99D5CA"/>
<path d="M1159.73 233.636C1163.08 231.693 1165.12 228.147 1165.12 224.261L1165.17 179.137L1120.63 256.174L1159.73 233.636Z" fill="#99D5CA"/>
<path d="M1052.97 179.332L1052.92 224.262C1052.92 228.099 1054.96 231.694 1058.31 233.637L1097.22 256.126L1052.97 179.332Z" fill="#99D5CA"/>
<path d="M1055.64 238.299C1052.29 236.356 1048.16 236.356 1044.81 238.299L1005.85 260.74L1094.5 260.788L1055.64 238.299Z" fill="#99D5CA"/>
<path d="M1042.14 233.636C1045.49 231.693 1047.53 228.147 1047.53 224.261L1047.58 179.137L1003.04 256.174L1042.14 233.636Z" fill="#99D5CA"/>
<path d="M935.422 179.332L935.373 224.262C935.373 228.099 937.413 231.694 940.765 233.637L979.672 256.126L935.422 179.332Z" fill="#99D5CA"/>
<path d="M938.092 238.299C934.741 236.356 930.612 236.356 927.26 238.299L888.305 260.74L976.951 260.788L938.092 238.299Z" fill="#99D5CA"/>
<path d="M924.59 233.636C927.941 231.693 929.981 228.147 929.981 224.261L930.03 179.137L885.488 256.174L924.59 233.636Z" fill="#99D5CA"/>
<path d="M817.826 179.332L817.777 224.262C817.777 228.099 819.817 231.694 823.169 233.637L862.076 256.126L817.826 179.332Z" fill="#99D5CA"/>
<path d="M820.498 238.299C817.147 236.356 813.018 236.356 809.667 238.299L770.711 260.74L859.357 260.788L820.498 238.299Z" fill="#99D5CA"/>
<path d="M807.043 233.636C810.394 231.693 812.434 228.147 812.434 224.261L812.483 179.137L767.941 256.174L807.043 233.636Z" fill="#99D5CA"/>
<path d="M700.279 179.332L700.23 224.262C700.23 228.099 702.27 231.694 705.622 233.637L744.529 256.126L700.279 179.332Z" fill="#99D5CA"/>
<path d="M702.952 238.299C699.6 236.356 695.471 236.356 692.12 238.299L653.164 260.74L741.81 260.788L702.952 238.299Z" fill="#99D5CA"/>
<path d="M689.447 233.636C692.799 231.693 694.839 228.147 694.839 224.261L694.887 179.137L650.346 256.174L689.447 233.636Z" fill="#99D5CA"/>
<path d="M582.732 179.332L582.684 224.262C582.684 228.099 584.724 231.694 588.075 233.637L626.982 256.126L582.732 179.332Z" fill="#99D5CA"/>
<path d="M585.405 238.299C582.053 236.356 577.924 236.356 574.573 238.299L535.617 260.74L624.263 260.788L585.405 238.299Z" fill="#99D5CA"/>
<path d="M571.9 233.636C575.252 231.693 577.292 228.147 577.292 224.261L577.34 179.137L532.799 256.174L571.9 233.636Z" fill="#99D5CA"/>
<path d="M465.138 179.332L465.09 224.262C465.09 228.099 467.13 231.694 470.481 233.637L509.389 256.126L465.138 179.332Z" fill="#99D5CA"/>
<path d="M467.809 238.299C464.457 236.356 460.329 236.356 456.977 238.299L418.021 260.74L506.668 260.788L467.809 238.299Z" fill="#99D5CA"/>
<path d="M454.305 233.636C457.656 231.693 459.696 228.147 459.696 224.261L459.745 179.137L415.252 256.174L454.305 233.636Z" fill="#99D5CA"/>
<path d="M347.59 179.332L347.541 224.262C347.541 228.099 349.581 231.694 352.933 233.637L391.84 256.126L347.59 179.332Z" fill="#99D5CA"/>
<path d="M350.26 238.299C346.909 236.356 342.78 236.356 339.428 238.299L300.473 260.74L389.119 260.788L350.26 238.299Z" fill="#99D5CA"/>
<path d="M336.758 233.636C340.109 231.693 342.149 228.147 342.149 224.261L342.198 179.137L297.656 256.174L336.758 233.636Z" fill="#99D5CA"/>
<path d="M229.994 179.332L229.945 224.262C229.945 228.099 231.985 231.694 235.337 233.637L274.244 256.126L229.994 179.332Z" fill="#99D5CA"/>
<path d="M232.666 238.299C229.315 236.356 225.186 236.356 221.835 238.299L182.879 260.74L271.525 260.788L232.666 238.299Z" fill="#99D5CA"/>
<path d="M219.211 233.636C222.562 231.693 224.602 228.147 224.602 224.261L224.651 179.137L180.109 256.174L219.211 233.636Z" fill="#99D5CA"/>
<path d="M112.447 179.332L112.398 224.262C112.398 228.099 114.439 231.694 117.79 233.637L156.697 256.126L112.447 179.332Z" fill="#99D5CA"/>
<path d="M115.12 238.299C111.768 236.356 107.639 236.356 104.288 238.299L65.332 260.74L153.978 260.788L115.12 238.299Z" fill="#99D5CA"/>
<path d="M101.615 233.636C104.967 231.693 107.007 228.147 107.007 224.261L107.055 179.137L62.5137 256.174L101.615 233.636Z" fill="#99D5CA"/>
<path d="M-5.09997 179.332L-5.14844 224.262C-5.14844 228.099 -3.10844 231.694 0.243112 233.637L39.1503 256.126L-5.09997 179.332Z" fill="#99D5CA"/>
<path d="M-2.42735 238.299C-5.7789 236.356 -9.90767 236.356 -13.2592 238.299L-52.2148 260.74L36.4312 260.788L-2.42735 238.299Z" fill="#99D5CA"/>
<path d="M1224.04 260.255L1224.09 215.325C1224.09 211.488 1222.05 207.893 1218.7 205.95L1179.79 183.461L1224.04 260.255Z" fill="#99D5CA"/>
<path d="M1221.37 201.286C1224.72 203.229 1228.85 203.229 1232.2 201.286L1271.16 178.845L1182.51 178.797L1221.37 201.286Z" fill="#99D5CA"/>
<path d="M1234.83 205.948C1231.48 207.891 1229.44 211.437 1229.44 215.323L1229.39 260.447L1273.93 183.41L1234.83 205.948Z" fill="#99D5CA"/>
<path d="M1106.4 260.255L1106.45 215.325C1106.45 211.488 1104.41 207.893 1101.06 205.95L1062.15 183.461L1106.4 260.255Z" fill="#99D5CA"/>
<path d="M1103.73 201.286C1107.08 203.229 1111.21 203.229 1114.56 201.286L1153.52 178.845L1064.87 178.797L1103.73 201.286Z" fill="#99D5CA"/>
<path d="M1117.23 205.948C1113.88 207.891 1111.84 211.437 1111.84 215.323L1111.79 260.447L1156.33 183.41L1117.23 205.948Z" fill="#99D5CA"/>
<path d="M988.901 260.255L988.949 215.325C988.949 211.488 986.909 207.893 983.558 205.95L944.65 183.461L988.901 260.255Z" fill="#99D5CA"/>
<path d="M986.23 201.286C989.581 203.229 993.71 203.229 997.061 201.286L1036.02 178.846L947.371 178.797L986.23 201.286Z" fill="#99D5CA"/>
<path d="M999.733 205.948C996.382 207.891 994.342 211.437 994.342 215.323L994.293 260.447L1038.83 183.41L999.733 205.948Z" fill="#99D5CA"/>
<path d="M871.209 260.255L871.258 215.325C871.258 211.488 869.218 207.893 865.866 205.95L826.959 183.461L871.209 260.255Z" fill="#99D5CA"/>
<path d="M868.538 201.286C871.89 203.229 876.018 203.229 879.37 201.286L918.325 178.846L829.679 178.797L868.538 201.286Z" fill="#99D5CA"/>
<path d="M882.042 205.948C878.69 207.891 876.65 211.437 876.65 215.323L876.602 260.447L921.143 183.41L882.042 205.948Z" fill="#99D5CA"/>
<path d="M753.614 260.255L753.662 215.325C753.662 211.488 751.622 207.893 748.27 205.95L709.363 183.461L753.614 260.255Z" fill="#99D5CA"/>
<path d="M750.943 201.286C754.294 203.229 758.423 203.229 761.774 201.286L800.73 178.845L712.084 178.797L750.943 201.286Z" fill="#99D5CA"/>
<path d="M764.444 205.948C761.093 207.891 759.053 211.437 759.053 215.323L759.004 260.447L803.546 183.41L764.444 205.948Z" fill="#99D5CA"/>
<path d="M636.162 260.255L636.211 215.325C636.211 211.488 634.171 207.893 630.819 205.95L591.912 183.461L636.162 260.255Z" fill="#99D5CA"/>
<path d="M633.491 201.286C636.843 203.229 640.972 203.229 644.323 201.286L683.279 178.845L594.633 178.797L633.491 201.286Z" fill="#99D5CA"/>
<path d="M646.993 205.948C643.641 207.891 641.601 211.437 641.601 215.323L641.553 260.447L686.094 183.41L646.993 205.948Z" fill="#99D5CA"/>
<path d="M518.469 260.255L518.517 215.325C518.517 211.488 516.477 207.893 513.126 205.95L474.219 183.461L518.469 260.255Z" fill="#99D5CA"/>
<path d="M515.798 201.286C519.15 203.229 523.278 203.229 526.63 201.286L565.585 178.845L476.939 178.797L515.798 201.286Z" fill="#99D5CA"/>
<path d="M529.3 205.948C525.948 207.891 523.908 211.437 523.908 215.323L523.859 260.447L568.401 183.41L529.3 205.948Z" fill="#99D5CA"/>
<path d="M400.777 260.255L400.826 215.325C400.826 211.488 398.786 207.893 395.434 205.95L356.527 183.461L400.777 260.255Z" fill="#99D5CA"/>
<path d="M398.107 201.286C401.458 203.229 405.587 203.229 408.938 201.286L447.894 178.845L359.248 178.797L398.107 201.286Z" fill="#99D5CA"/>
<path d="M411.608 205.948C408.257 207.891 406.217 211.437 406.217 215.323L406.168 260.447L450.709 183.41L411.608 205.948Z" fill="#99D5CA"/>
<path d="M283.424 260.255L283.473 215.325C283.473 211.488 281.433 207.893 278.081 205.95L239.174 183.461L283.424 260.255Z" fill="#99D5CA"/>
<path d="M280.753 201.286C284.105 203.229 288.233 203.229 291.585 201.286L330.541 178.845L241.895 178.797L280.753 201.286Z" fill="#99D5CA"/>
<path d="M294.255 205.948C290.903 207.891 288.863 211.437 288.863 215.323L288.814 260.447L333.356 183.41L294.255 205.948Z" fill="#99D5CA"/>
<path d="M165.731 260.255L165.779 215.325C165.779 211.488 163.739 207.893 160.388 205.95L121.48 183.461L165.731 260.255Z" fill="#99D5CA"/>
<path d="M163.058 201.286C166.409 203.229 170.538 203.229 173.89 201.286L212.845 178.845L124.199 178.797L163.058 201.286Z" fill="#99D5CA"/>
<path d="M176.563 205.948C173.212 207.891 171.172 211.437 171.172 215.323L171.123 260.447L215.665 183.41L176.563 205.948Z" fill="#99D5CA"/>
<path d="M48.0391 260.255L48.0878 215.325C48.0878 211.488 46.0476 207.893 42.6961 205.95L3.78906 183.461L48.0391 260.255Z" fill="#99D5CA"/>
<path d="M45.3683 201.286C48.7198 203.229 52.8485 203.229 56.2 201.286L95.1558 178.845L6.50977 178.797L45.3683 201.286Z" fill="#99D5CA"/>
<path d="M58.8718 205.948C55.5203 207.891 53.4801 211.437 53.4801 215.323L53.4316 260.447L97.9731 183.41L58.8718 205.948Z" fill="#99D5CA"/>
<path d="M-13.454 114.294C-10.1024 116.237 -5.97365 116.237 -2.6221 114.294L36.3335 91.8534L-52.3125 91.8049L-13.454 114.294Z" fill="#99D5CA"/>
<path d="M0.0495447 118.956C-3.302 120.899 -5.342 124.445 -5.342 128.331L-5.39062 173.455L39.151 96.418L0.0495447 118.956Z" fill="#99D5CA"/>
<path d="M106.813 173.263L106.861 128.333C106.861 124.495 104.821 120.901 101.47 118.958L62.5625 96.4688L106.813 173.263Z" fill="#99D5CA"/>
<path d="M104.14 114.294C107.491 116.237 111.62 116.237 114.971 114.294L153.927 91.8533L65.2812 91.8047L104.14 114.294Z" fill="#99D5CA"/>
<path d="M117.645 118.956C114.294 120.899 112.254 124.445 112.254 128.331L112.205 173.455L156.747 96.418L117.645 118.956Z" fill="#99D5CA"/>
<path d="M224.36 173.261L224.408 128.331C224.408 124.494 222.368 120.899 219.017 118.956L180.109 96.4669L224.36 173.261Z" fill="#99D5CA"/>
<path d="M221.689 114.294C225.04 116.237 229.169 116.237 232.52 114.294L271.476 91.8533L182.83 91.8047L221.689 114.294Z" fill="#99D5CA"/>
<path d="M235.192 118.956C231.841 120.899 229.801 124.445 229.801 128.331L229.752 173.455L274.294 96.418L235.192 118.956Z" fill="#99D5CA"/>
<path d="M341.953 173.263L342.002 128.333C342.002 124.495 339.962 120.901 336.61 118.958L297.703 96.4688L341.953 173.263Z" fill="#99D5CA"/>
<path d="M339.282 114.294C342.634 116.237 346.763 116.237 350.114 114.294L389.07 91.8533L300.424 91.8047L339.282 114.294Z" fill="#99D5CA"/>
<path d="M352.737 118.956C349.385 120.899 347.345 124.445 347.345 128.331L347.297 173.455L391.838 96.418L352.737 118.956Z" fill="#99D5CA"/>
<path d="M459.502 173.263L459.551 128.333C459.551 124.495 457.511 120.901 454.159 118.958L415.252 96.4688L459.502 173.263Z" fill="#99D5CA"/>
<path d="M456.831 114.294C460.183 116.237 464.312 116.237 467.663 114.294L506.619 91.8533L417.973 91.8047L456.831 114.294Z" fill="#99D5CA"/>
<path d="M470.335 118.956C466.983 120.899 464.943 124.445 464.943 128.331L464.895 173.455L509.436 96.418L470.335 118.956Z" fill="#99D5CA"/>
<path d="M577.049 173.263L577.098 128.333C577.098 124.496 575.058 120.901 571.706 118.958L532.799 96.4689L577.049 173.263Z" fill="#99D5CA"/>
<path d="M574.378 114.294C577.73 116.237 581.858 116.237 585.21 114.294L624.166 91.8534L535.52 91.8049L574.378 114.294Z" fill="#99D5CA"/>
<path d="M587.882 118.956C584.53 120.899 582.49 124.445 582.49 128.331L582.442 173.455L626.983 96.4182L587.882 118.956Z" fill="#99D5CA"/>
<path d="M694.645 173.263L694.693 128.333C694.693 124.496 692.653 120.901 689.302 118.958L650.395 96.4689L694.645 173.263Z" fill="#99D5CA"/>
<path d="M691.974 114.294C695.325 116.237 699.454 116.237 702.806 114.294L741.761 91.8534L653.115 91.8049L691.974 114.294Z" fill="#99D5CA"/>
<path d="M705.475 118.956C702.124 120.899 700.084 124.445 700.084 128.331L700.035 173.455L744.577 96.4182L705.475 118.956Z" fill="#99D5CA"/>
<path d="M812.192 173.263L812.24 128.333C812.24 124.495 810.2 120.901 806.849 118.958L767.941 96.4688L812.192 173.263Z" fill="#99D5CA"/>
<path d="M809.52 114.294C812.872 116.237 817.001 116.237 820.352 114.294L859.308 91.8534L770.662 91.8049L809.52 114.294Z" fill="#99D5CA"/>
<path d="M823.022 118.956C819.671 120.899 817.631 124.445 817.631 128.331L817.582 173.455L862.124 96.418L823.022 118.956Z" fill="#99D5CA"/>
<path d="M929.787 173.263L929.836 128.333C929.836 124.495 927.796 120.901 924.444 118.958L885.537 96.4688L929.787 173.263Z" fill="#99D5CA"/>
<path d="M927.116 114.294C930.468 116.237 934.597 116.237 937.948 114.294L976.904 91.8533L888.258 91.8047L927.116 114.294Z" fill="#99D5CA"/>
<path d="M940.569 118.956C937.218 120.899 935.178 124.445 935.178 128.331L935.129 173.455L979.671 96.418L940.569 118.956Z" fill="#99D5CA"/>
<path d="M1047.34 173.263L1047.38 128.333C1047.38 124.495 1045.34 120.901 1041.99 118.958L1003.09 96.4688L1047.34 173.263Z" fill="#99D5CA"/>
<path d="M1044.67 114.294C1048.02 116.237 1052.15 116.237 1055.5 114.294L1094.45 91.8533L1005.81 91.8047L1044.67 114.294Z" fill="#99D5CA"/>
<path d="M1058.17 118.956C1054.82 120.899 1052.78 124.445 1052.78 128.331L1052.73 173.455L1097.27 96.418L1058.17 118.956Z" fill="#99D5CA"/>
<path d="M1164.88 173.261L1164.93 128.331C1164.93 124.494 1162.89 120.899 1159.54 118.956L1120.63 96.467L1164.88 173.261Z" fill="#99D5CA"/>
<path d="M1162.21 114.294C1165.56 116.237 1169.69 116.237 1173.04 114.294L1212 91.8534L1123.35 91.8049L1162.21 114.294Z" fill="#99D5CA"/>
<path d="M1175.71 118.956C1172.36 120.899 1170.32 124.445 1170.32 128.331L1170.27 173.455L1214.81 96.4182L1175.71 118.956Z" fill="#99D5CA"/>
<path d="M1282.48 173.263L1282.53 128.333C1282.53 124.495 1280.49 120.901 1277.13 118.958L1238.23 96.4688L1282.48 173.263Z" fill="#99D5CA"/>
<path d="M1279.8 114.294C1283.16 116.237 1287.28 116.237 1290.64 114.294L1329.59 91.8533L1240.95 91.8047L1279.8 114.294Z" fill="#99D5CA"/>
<path d="M53.3339 92.293L53.2854 137.223C53.2854 141.06 55.3254 144.655 58.677 146.598L97.5841 169.087L53.3339 92.293Z" fill="#99D5CA"/>
<path d="M56.006 151.26C52.6544 149.317 48.5257 149.317 45.1741 151.26L6.21851 173.701L94.8645 173.749L56.006 151.26Z" fill="#99D5CA"/>
<path d="M42.5019 146.597C45.8534 144.654 47.8934 141.108 47.8934 137.222L47.942 92.0977L3.40039 169.135L42.5019 146.597Z" fill="#99D5CA"/>
<path d="M170.928 92.293L170.879 137.223C170.879 141.06 172.919 144.655 176.27 146.598L215.178 169.087L170.928 92.293Z" fill="#99D5CA"/>
<path d="M173.6 151.26C170.248 149.317 166.12 149.317 162.768 151.26L123.812 173.701L212.459 173.749L173.6 151.26Z" fill="#99D5CA"/>
<path d="M160.097 146.597C163.449 144.654 165.489 141.108 165.489 137.222L165.538 92.0977L120.996 169.135L160.097 146.597Z" fill="#99D5CA"/>
<path d="M288.429 92.293L288.381 137.223C288.381 141.06 290.421 144.655 293.772 146.598L332.68 169.087L288.429 92.293Z" fill="#99D5CA"/>
<path d="M291.149 151.26C287.797 149.317 283.668 149.317 280.317 151.26L241.361 173.701L330.007 173.749L291.149 151.26Z" fill="#99D5CA"/>
<path d="M277.644 146.597C280.996 144.654 283.036 141.108 283.036 137.222L283.085 92.0977L238.543 169.135L277.644 146.597Z" fill="#99D5CA"/>
<path d="M406.119 92.293L406.07 137.223C406.07 141.06 408.11 144.655 411.462 146.598L450.369 169.087L406.119 92.293Z" fill="#99D5CA"/>
<path d="M408.838 151.26C405.487 149.317 401.358 149.317 398.007 151.26L359.051 173.701L447.697 173.749L408.838 151.26Z" fill="#99D5CA"/>
<path d="M395.336 146.597C398.687 144.654 400.727 141.108 400.727 137.222L400.776 92.0977L356.234 169.135L395.336 146.597Z" fill="#99D5CA"/>
<path d="M523.765 92.293L523.717 137.223C523.717 141.06 525.757 144.655 529.108 146.598L568.016 169.087L523.765 92.293Z" fill="#99D5CA"/>
<path d="M526.436 151.26C523.084 149.317 518.956 149.317 515.604 151.26L476.648 173.701L565.294 173.749L526.436 151.26Z" fill="#99D5CA"/>
<path d="M512.933 146.597C516.285 144.654 518.325 141.108 518.325 137.222L518.374 92.0977L473.832 169.135L512.933 146.597Z" fill="#99D5CA"/>
<path d="M641.166 92.293L641.117 137.223C641.117 141.06 643.157 144.655 646.509 146.598L685.416 169.087L641.166 92.293Z" fill="#99D5CA"/>
<path d="M643.838 151.26C640.487 149.317 636.358 149.317 633.006 151.26L594.051 173.701L682.697 173.749L643.838 151.26Z" fill="#99D5CA"/>
<path d="M630.383 146.597C633.734 144.654 635.774 141.108 635.774 137.222L635.823 92.0977L591.281 169.135L630.383 146.597Z" fill="#99D5CA"/>
<path d="M758.857 92.293L758.809 137.223C758.809 141.06 760.849 144.655 764.2 146.598L803.107 169.087L758.857 92.293Z" fill="#99D5CA"/>
<path d="M761.53 151.26C758.178 149.317 754.049 149.317 750.698 151.26L711.742 173.701L800.388 173.749L761.53 151.26Z" fill="#99D5CA"/>
<path d="M748.074 146.597C751.426 144.654 753.466 141.108 753.466 137.222L753.514 92.0977L708.973 169.135L748.074 146.597Z" fill="#99D5CA"/>
<path d="M876.551 92.293L876.502 137.223C876.502 141.06 878.542 144.655 881.894 146.598L920.801 169.087L876.551 92.293Z" fill="#99D5CA"/>
<path d="M879.223 151.26C875.871 149.317 871.743 149.317 868.391 151.26L829.436 173.701L918.082 173.749L879.223 151.26Z" fill="#99D5CA"/>
<path d="M865.767 146.597C869.119 144.654 871.159 141.108 871.159 137.222L871.208 92.0977L826.666 169.135L865.767 146.597Z" fill="#99D5CA"/>
<path d="M993.906 92.293L993.857 137.223C993.857 141.06 995.898 144.655 999.249 146.598L1038.16 169.087L993.906 92.293Z" fill="#99D5CA"/>
<path d="M996.577 151.26C993.225 149.317 989.096 149.317 985.745 151.26L946.789 173.701L1035.44 173.749L996.577 151.26Z" fill="#99D5CA"/>
<path d="M983.074 146.597C986.426 144.654 988.466 141.108 988.466 137.222L988.514 92.0977L943.973 169.135L983.074 146.597Z" fill="#99D5CA"/>
<path d="M1111.6 92.293L1111.55 137.223C1111.55 141.06 1113.59 144.655 1116.94 146.598L1155.85 169.087L1111.6 92.293Z" fill="#99D5CA"/>
<path d="M1114.27 151.26C1110.92 149.317 1106.79 149.317 1103.44 151.26L1064.48 173.701L1153.13 173.749L1114.27 151.26Z" fill="#99D5CA"/>
<path d="M1100.77 146.597C1104.12 144.654 1106.16 141.108 1106.16 137.222L1106.21 92.0977L1061.66 169.135L1100.77 146.597Z" fill="#99D5CA"/>
<path d="M1229.29 92.293L1229.24 137.223C1229.24 141.06 1231.28 144.655 1234.63 146.598L1273.54 169.087L1229.29 92.293Z" fill="#99D5CA"/>
<path d="M1231.96 151.26C1228.61 149.317 1224.48 149.317 1221.13 151.26L1182.17 173.701L1270.82 173.749L1231.96 151.26Z" fill="#99D5CA"/>
<path d="M1218.46 146.597C1221.81 144.654 1223.85 141.108 1223.85 137.222L1223.9 92.0977L1179.36 169.135L1218.46 146.597Z" fill="#99D5CA"/>
<path d="M1290.78 64.2638C1287.43 62.3209 1283.3 62.3209 1279.95 64.2638L1241 86.7046L1329.64 86.7532L1290.78 64.2638Z" fill="#99D5CA"/>
<path d="M1277.28 59.6007C1280.63 57.6577 1282.67 54.1119 1282.67 50.226L1282.72 5.10156L1238.18 82.1386L1277.28 59.6007Z" fill="#99D5CA"/>
<path d="M1170.56 5.29688L1170.52 50.2271C1170.52 54.0643 1172.56 57.6587 1175.91 59.6017L1214.81 82.0911L1170.56 5.29688Z" fill="#99D5CA"/>
<path d="M1173.24 64.2638C1169.89 62.3209 1165.76 62.3209 1162.4 64.2638L1123.45 86.7046L1212.1 86.7532L1173.24 64.2638Z" fill="#99D5CA"/>
<path d="M1159.73 59.6007C1163.08 57.6577 1165.12 54.1119 1165.12 50.226L1165.17 5.10156L1120.63 82.1386L1159.73 59.6007Z" fill="#99D5CA"/>
<path d="M1052.97 5.29688L1052.92 50.2271C1052.92 54.0643 1054.96 57.6587 1058.31 59.6017L1097.22 82.0911L1052.97 5.29688Z" fill="#99D5CA"/>
<path d="M1055.64 64.2638C1052.29 62.3209 1048.16 62.3209 1044.81 64.2638L1005.85 86.7046L1094.5 86.7532L1055.64 64.2638Z" fill="#99D5CA"/>
<path d="M1042.14 59.6007C1045.49 57.6577 1047.53 54.1119 1047.53 50.226L1047.58 5.10156L1003.04 82.1386L1042.14 59.6007Z" fill="#99D5CA"/>
<path d="M935.422 5.29688L935.373 50.2271C935.373 54.0643 937.413 57.6587 940.765 59.6017L979.672 82.0911L935.422 5.29688Z" fill="#99D5CA"/>
<path d="M938.092 64.2638C934.741 62.3209 930.612 62.3209 927.26 64.2638L888.305 86.7046L976.951 86.7532L938.092 64.2638Z" fill="#99D5CA"/>
<path d="M924.59 59.6007C927.941 57.6577 929.981 54.1119 929.981 50.226L930.03 5.10156L885.488 82.1386L924.59 59.6007Z" fill="#99D5CA"/>
<path d="M817.826 5.29688L817.777 50.2271C817.777 54.0643 819.817 57.6587 823.169 59.6017L862.076 82.0911L817.826 5.29688Z" fill="#99D5CA"/>
<path d="M820.498 64.2638C817.147 62.3209 813.018 62.3209 809.667 64.2638L770.711 86.7046L859.357 86.7532L820.498 64.2638Z" fill="#99D5CA"/>
<path d="M807.043 59.6007C810.394 57.6577 812.434 54.1119 812.434 50.226L812.483 5.10156L767.941 82.1386L807.043 59.6007Z" fill="#99D5CA"/>
<path d="M700.279 5.29688L700.23 50.2271C700.23 54.0643 702.27 57.6587 705.622 59.6017L744.529 82.0911L700.279 5.29688Z" fill="#99D5CA"/>
<path d="M702.952 64.2638C699.6 62.3209 695.471 62.3209 692.12 64.2638L653.164 86.7046L741.81 86.7532L702.952 64.2638Z" fill="#99D5CA"/>
<path d="M689.447 59.6007C692.799 57.6577 694.839 54.1119 694.839 50.226L694.887 5.10156L650.346 82.1386L689.447 59.6007Z" fill="#99D5CA"/>
<path d="M582.732 5.29688L582.684 50.2271C582.684 54.0643 584.724 57.6587 588.075 59.6017L626.982 82.0911L582.732 5.29688Z" fill="#99D5CA"/>
<path d="M585.405 64.2638C582.053 62.3209 577.924 62.3209 574.573 64.2638L535.617 86.7046L624.263 86.7532L585.405 64.2638Z" fill="#99D5CA"/>
<path d="M571.9 59.6007C575.252 57.6577 577.292 54.1119 577.292 50.226L577.34 5.10156L532.799 82.1386L571.9 59.6007Z" fill="#99D5CA"/>
<path d="M465.136 5.29688L465.088 50.2271C465.088 54.0643 467.128 57.6587 470.479 59.6017L509.387 82.0911L465.136 5.29688Z" fill="#99D5CA"/>
<path d="M467.809 64.2638C464.457 62.3209 460.329 62.3209 456.977 64.2638L418.021 86.7046L506.668 86.7532L467.809 64.2638Z" fill="#99D5CA"/>
<path d="M454.305 59.6007C457.656 57.6577 459.696 54.1119 459.696 50.226L459.745 5.10156L415.252 82.1386L454.305 59.6007Z" fill="#99D5CA"/>
<path d="M347.59 5.29688L347.541 50.2271C347.541 54.0643 349.581 57.6587 352.933 59.6017L391.84 82.0911L347.59 5.29688Z" fill="#99D5CA"/>
<path d="M350.26 64.2638C346.909 62.3209 342.78 62.3209 339.428 64.2638L300.473 86.7046L389.119 86.7532L350.26 64.2638Z" fill="#99D5CA"/>
<path d="M336.758 59.6007C340.109 57.6577 342.149 54.1119 342.149 50.226L342.198 5.10156L297.656 82.1386L336.758 59.6007Z" fill="#99D5CA"/>
<path d="M229.994 5.29688L229.945 50.2271C229.945 54.0643 231.985 57.6587 235.337 59.6017L274.244 82.0911L229.994 5.29688Z" fill="#99D5CA"/>
<path d="M232.666 64.2638C229.315 62.3209 225.186 62.3209 221.835 64.2638L182.879 86.7046L271.525 86.7532L232.666 64.2638Z" fill="#99D5CA"/>
<path d="M219.211 59.6007C222.562 57.6577 224.602 54.1119 224.602 50.226L224.651 5.10156L180.109 82.1386L219.211 59.6007Z" fill="#99D5CA"/>
<path d="M112.447 5.29688L112.398 50.2271C112.398 54.0643 114.439 57.6587 117.79 59.6017L156.697 82.0911L112.447 5.29688Z" fill="#99D5CA"/>
<path d="M115.12 64.2638C111.768 62.3209 107.639 62.3209 104.288 64.2638L65.332 86.7046L153.978 86.7532L115.12 64.2638Z" fill="#99D5CA"/>
<path d="M101.615 59.6007C104.967 57.6577 107.007 54.1119 107.007 50.226L107.055 5.10156L62.5137 82.1386L101.615 59.6007Z" fill="#99D5CA"/>
<path d="M-5.09997 5.29688L-5.14844 50.2271C-5.14844 54.0643 -3.10844 57.6587 0.243112 59.6017L39.1503 82.0911L-5.09997 5.29688Z" fill="#99D5CA"/>
<path d="M-2.42735 64.2638C-5.7789 62.3209 -9.90767 62.3209 -13.2592 64.2638L-52.2148 86.7046L36.4312 86.7532L-2.42735 64.2638Z" fill="#99D5CA"/>
<path d="M1224.04 86.22L1224.09 41.2898C1224.09 37.4525 1222.05 33.8581 1218.7 31.9152L1179.79 9.42578L1224.04 86.22Z" fill="#99D5CA"/>
<path d="M1221.37 27.2511C1224.72 29.194 1228.85 29.194 1232.2 27.2511L1271.16 4.8103L1182.51 4.76172L1221.37 27.2511Z" fill="#99D5CA"/>
<path d="M1234.83 31.9129C1231.48 33.8559 1229.44 37.4017 1229.44 41.2876L1229.39 86.412L1273.93 9.375L1234.83 31.9129Z" fill="#99D5CA"/>
<path d="M1106.4 86.22L1106.45 41.2898C1106.45 37.4525 1104.41 33.8581 1101.06 31.9152L1062.15 9.42578L1106.4 86.22Z" fill="#99D5CA"/>
<path d="M1103.73 27.2511C1107.08 29.194 1111.21 29.194 1114.56 27.2511L1153.52 4.8103L1064.87 4.76172L1103.73 27.2511Z" fill="#99D5CA"/>
<path d="M1117.23 31.9129C1113.88 33.8559 1111.84 37.4017 1111.84 41.2876L1111.79 86.412L1156.33 9.375L1117.23 31.9129Z" fill="#99D5CA"/>
<path d="M988.901 86.22L988.949 41.2898C988.949 37.4525 986.909 33.8581 983.558 31.9152L944.65 9.42578L988.901 86.22Z" fill="#99D5CA"/>
<path d="M986.23 27.2512C989.581 29.1941 993.71 29.1941 997.061 27.2512L1036.02 4.81042L947.371 4.76184L986.23 27.2512Z" fill="#99D5CA"/>
<path d="M999.733 31.9129C996.382 33.8559 994.342 37.4017 994.342 41.2876L994.293 86.412L1038.83 9.375L999.733 31.9129Z" fill="#99D5CA"/>
<path d="M871.209 86.22L871.258 41.2898C871.258 37.4525 869.218 33.8581 865.866 31.9152L826.959 9.42578L871.209 86.22Z" fill="#99D5CA"/>
<path d="M868.538 27.2512C871.89 29.1941 876.018 29.1941 879.37 27.2512L918.325 4.81042L829.679 4.76184L868.538 27.2512Z" fill="#99D5CA"/>
<path d="M882.042 31.9129C878.69 33.8559 876.65 37.4017 876.65 41.2876L876.602 86.412L921.143 9.375L882.042 31.9129Z" fill="#99D5CA"/>
<path d="M753.614 86.22L753.662 41.2898C753.662 37.4525 751.622 33.8581 748.27 31.9152L709.363 9.42578L753.614 86.22Z" fill="#99D5CA"/>
<path d="M750.943 27.2511C754.294 29.194 758.423 29.194 761.774 27.2511L800.73 4.8103L712.084 4.76172L750.943 27.2511Z" fill="#99D5CA"/>
<path d="M764.444 31.9129C761.093 33.8559 759.053 37.4017 759.053 41.2876L759.004 86.412L803.546 9.375L764.444 31.9129Z" fill="#99D5CA"/>
<path d="M636.162 86.22L636.211 41.2898C636.211 37.4525 634.171 33.8581 630.819 31.9152L591.912 9.42578L636.162 86.22Z" fill="#99D5CA"/>
<path d="M633.491 27.2511C636.843 29.194 640.972 29.194 644.323 27.2511L683.279 4.8103L594.633 4.76172L633.491 27.2511Z" fill="#99D5CA"/>
<path d="M646.995 31.9129C643.643 33.8559 641.603 37.4017 641.603 41.2876L641.555 86.412L686.096 9.375L646.995 31.9129Z" fill="#99D5CA"/>
<path d="M518.469 86.22L518.517 41.2898C518.517 37.4525 516.477 33.8581 513.126 31.9152L474.219 9.42578L518.469 86.22Z" fill="#99D5CA"/>
<path d="M515.798 27.2511C519.15 29.194 523.278 29.194 526.63 27.2511L565.585 4.8103L476.939 4.76172L515.798 27.2511Z" fill="#99D5CA"/>
<path d="M529.3 31.9129C525.948 33.8559 523.908 37.4017 523.908 41.2876L523.859 86.412L568.401 9.375L529.3 31.9129Z" fill="#99D5CA"/>
<path d="M400.777 86.22L400.826 41.2898C400.826 37.4525 398.786 33.8581 395.434 31.9152L356.527 9.42578L400.777 86.22Z" fill="#99D5CA"/>
<path d="M398.107 27.2511C401.458 29.194 405.587 29.194 408.938 27.2511L447.894 4.8103L359.248 4.76172L398.107 27.2511Z" fill="#99D5CA"/>
<path d="M411.608 31.9129C408.257 33.8559 406.217 37.4017 406.217 41.2876L406.168 86.412L450.709 9.375L411.608 31.9129Z" fill="#99D5CA"/>
<path d="M283.424 86.22L283.473 41.2898C283.473 37.4525 281.433 33.8581 278.081 31.9152L239.174 9.42578L283.424 86.22Z" fill="#99D5CA"/>
<path d="M280.753 27.2511C284.105 29.194 288.233 29.194 291.585 27.2511L330.541 4.8103L241.895 4.76172L280.753 27.2511Z" fill="#99D5CA"/>
<path d="M294.255 31.9129C290.903 33.8559 288.863 37.4017 288.863 41.2876L288.814 86.412L333.356 9.375L294.255 31.9129Z" fill="#99D5CA"/>
<path d="M165.731 86.22L165.779 41.2898C165.779 37.4525 163.739 33.8581 160.388 31.9152L121.48 9.42578L165.731 86.22Z" fill="#99D5CA"/>
<path d="M163.058 27.2511C166.409 29.194 170.538 29.194 173.89 27.2511L212.845 4.8103L124.199 4.76172L163.058 27.2511Z" fill="#99D5CA"/>
<path d="M176.561 31.9129C173.21 33.8559 171.17 37.4017 171.17 41.2876L171.121 86.412L215.663 9.375L176.561 31.9129Z" fill="#99D5CA"/>
<path d="M48.0391 86.22L48.0878 41.2898C48.0878 37.4525 46.0476 33.8581 42.6961 31.9152L3.78906 9.42578L48.0391 86.22Z" fill="#99D5CA"/>
<path d="M45.3683 27.2511C48.7198 29.194 52.8485 29.194 56.2 27.2511L95.1558 4.8103L6.50977 4.76172L45.3683 27.2511Z" fill="#99D5CA"/>
<path d="M58.8699 31.9129C55.5183 33.8559 53.4782 37.4017 53.4782 41.2876L53.4297 86.412L97.9712 9.375L58.8699 31.9129Z" fill="#99D5CA"/>
</g>
<rect width="1280" height="440" fill="#414042" fill-opacity="0.95"/>
</svg>
