<svg id="Layer_1" data-name="Layer 1" xmlns="http://www.w3.org/2000/svg" viewBox="0 0 333.55 345.42"><defs><style>.cls-1{fill:none;stroke:#98d4c9;stroke-miterlimit:10;stroke-width:6.83px;}.cls-2{fill:#98d4c9;}</style></defs><title>logo_animation</title><path class="cls-1" d="M12.2,169.36C12.2,79.28,85.48,6,175.56,6S338.92,79.28,338.92,169.36,265.63,332.72,175.56,332.72,12.2,259.44,12.2,169.36Zm318.21,0C330.41,84,260.94,14.5,175.56,14.5S20.7,84,20.7,169.36,90.17,324.21,175.56,324.21,330.41,254.75,330.41,169.36Z" transform="translate(-8.78 -2.58)"/><path class="cls-2" d="M143.28,169.49l13.27,7.73a3.7,3.7,0,0,0,3.7,0l13.33-7.63Z" transform="translate(-8.78 -2.58)"/><path class="cls-2" d="M161.16,178.83A3.71,3.71,0,0,0,159.3,182l-.06,15.36,15.25-26.18Z" transform="translate(-8.78 -2.58)"/><path class="cls-2" d="M157.46,182a3.66,3.66,0,0,0-1.83-3.2l-13.32-7.76,15.1,26.38Z" transform="translate(-8.78 -2.58)"/><path class="cls-2" d="M153.3,195.76l-30.08-52.59L123.09,176a3.66,3.66,0,0,0,1.83,3.2Z" transform="translate(-8.78 -2.58)"/><path class="cls-2" d="M123.07,182.4a3.71,3.71,0,0,0-3.69,0L90.87,198.7l60.59.24Z" transform="translate(-8.78 -2.58)"/><path class="cls-2" d="M90.15,194.87l28.09-16.08a3.69,3.69,0,0,0,1.86-3.19l.13-32.36Z" transform="translate(-8.78 -2.58)"/><path class="cls-2" d="M192,197.47l.06-15.36a3.69,3.69,0,0,0-1.83-3.21l-13.27-7.73Z" transform="translate(-8.78 -2.58)"/><path class="cls-2" d="M191.12,177.31a3.7,3.7,0,0,0,3.7,0l13.33-7.63-30.3-.12Z" transform="translate(-8.78 -2.58)"/><path class="cls-2" d="M195.73,178.92a3.72,3.72,0,0,0-1.86,3.19l-.06,15.36,15.25-26.18Z" transform="translate(-8.78 -2.58)"/><path class="cls-2" d="M209.72,175.65,179.22,228l28.51-16.31a3.72,3.72,0,0,0,1.86-3.19Z" transform="translate(-8.78 -2.58)"/><path class="cls-2" d="M213.26,208.51a3.72,3.72,0,0,0,1.84,3.21l28.38,16.53-30.09-52.59Z" transform="translate(-8.78 -2.58)"/><path class="cls-2" d="M241.2,230.73l-27.82-16.21a3.7,3.7,0,0,0-3.7,0l-28,16Z" transform="translate(-8.78 -2.58)"/><path class="cls-2" d="M233.82,236.93l-121.17-.48,56.76,33.07a7.39,7.39,0,0,0,7.39,0Z" transform="translate(-8.78 -2.58)"/><path class="cls-2" d="M180.45,275.93a7.38,7.38,0,0,0-3.72,6.38L176.47,348l61-104.7Z" transform="translate(-8.78 -2.58)"/><path class="cls-2" d="M169.9,348l.26-65.32a7.5,7.5,0,0,0-3.72-6.5L110,243.3Z" transform="translate(-8.78 -2.58)"/><path class="cls-2" d="M204.37,82l60.17,105.17.26-65.69a7.38,7.38,0,0,0-3.67-6.41Z" transform="translate(-8.78 -2.58)"/><path class="cls-2" d="M264.83,108.66a7.39,7.39,0,0,0,7.39,0l57-32.62-121.17-.48Z" transform="translate(-8.78 -2.58)"/><path class="cls-2" d="M332.52,81.76,275.83,114.2a7.49,7.49,0,0,0-3.77,6.47L271.8,186Z" transform="translate(-8.78 -2.58)"/><path class="cls-2" d="M88.16,186.07l61-104.69L92.13,114a7.4,7.4,0,0,0-3.72,6.38Z" transform="translate(-8.78 -2.58)"/><path class="cls-2" d="M81.06,120.35a7.39,7.39,0,0,0-3.66-6.41L20.64,80.87,80.81,186.05Z" transform="translate(-8.78 -2.58)"/><path class="cls-2" d="M23.92,75.18l56.44,32.89a7.5,7.5,0,0,0,7.49,0l56.69-32.43Z" transform="translate(-8.78 -2.58)"/><path class="cls-2" d="M191.86,141.31l-13.33,7.63a3.71,3.71,0,0,0-1.86,3.19l-.06,15.36Z" transform="translate(-8.78 -2.58)"/><path class="cls-2" d="M174.83,152.12a3.66,3.66,0,0,0-1.83-3.2l-13.27-7.74,15,26.3Z" transform="translate(-8.78 -2.58)"/><path class="cls-2" d="M173.92,147.33a3.7,3.7,0,0,0,3.7,0l13.09-7.49-29.82-.11Z" transform="translate(-8.78 -2.58)"/><path class="cls-2" d="M164.1,136.85l60.58.24L196.3,120.55a3.71,3.71,0,0,0-3.69,0Z" transform="translate(-8.78 -2.58)"/><path class="cls-2" d="M190.78,117.35a3.68,3.68,0,0,0,1.86-3.19l.13-32.85-30.5,52.35Z" transform="translate(-8.78 -2.58)"/><path class="cls-2" d="M196.45,81.22,196.32,114a3.71,3.71,0,0,0,1.83,3.21l28.28,16.47Z" transform="translate(-8.78 -2.58)"/></svg>