<svg width="28" height="27" viewBox="0 0 28 27" fill="none" xmlns="http://www.w3.org/2000/svg">
<path fill-rule="evenodd" clip-rule="evenodd" d="M14 0C6.26801 0 0 6.04416 0 13.5C0 20.9558 6.26801 27 14 27C21.732 27 28 20.9558 28 13.5C28 6.04416 21.732 0 14 0ZM6.72094 11.1813H9.89365V20.3735H6.72094V11.1813ZM10.1026 8.33777C10.082 7.43648 9.41363 6.75 8.32827 6.75C7.24291 6.75 6.53333 7.43648 6.53333 8.33777C6.53333 9.22039 7.22193 9.92663 8.28708 9.92663H8.30736C9.41363 9.92663 10.1026 9.22039 10.1026 8.33777ZM17.6827 10.9654C19.7705 10.9654 21.3356 12.2795 21.3356 15.103L21.3355 20.3735H18.1629V15.4557C18.1629 14.2204 17.7038 13.3775 16.5553 13.3775C15.6788 13.3775 15.1567 13.9457 14.9274 14.4946C14.8435 14.6913 14.8229 14.9653 14.8229 15.2401V20.3737H11.6498C11.6498 20.3737 11.6916 12.0441 11.6498 11.1815H14.8229V12.4835C15.244 11.8576 15.9982 10.9654 17.6827 10.9654Z" fill="#99D5CA"/>
</svg>
